<svg width="90" height="90" viewBox="0 0 90 90" fill="none" xmlns="http://www.w3.org/2000/svg">
<path d="M72 15V75H12C12 46.5 43.5 15 72 15Z" fill="url(#paint0_linear)"/>
<path d="M52 70H42V62H52V70Z" fill="url(#paint1_linear)"/>
<path d="M78 70H68V33H78V70Z" fill="url(#paint2_linear)"/>
<path d="M65 70H55V50H65V70Z" fill="url(#paint3_linear)"/>
<path fill-rule="evenodd" clip-rule="evenodd" d="M61.9323 39.6901C59.5147 42.3741 56.9642 44.0381 54.1215 44.7628C53.7331 44.8551 53.3054 44.9078 52.9229 44.9548C52.8606 44.9625 52.7995 44.97 52.74 44.9775C51.5178 45.058 50.2692 44.9238 49.0736 44.5481C48.4094 44.3334 47.7452 44.065 47.1076 43.6892C45.2479 42.6961 43.6007 41.4078 42.2192 39.8511C41.9269 39.529 41.9269 39.4485 42.2192 39.1533C44.0258 37.194 45.9386 35.7714 48.0641 34.8589C49.3659 34.2952 50.6942 34 51.9961 34C53.4041 34 54.8122 34.3221 56.2203 34.9931C58.2394 35.9325 60.0992 37.3282 61.7464 39.1264C61.7729 39.1533 61.7995 39.1868 61.8261 39.2204C61.8526 39.2539 61.8792 39.2875 61.9058 39.3143C62.0121 39.4485 62.0386 39.5827 61.9323 39.6901ZM49.2065 39.6095C49.2065 41.1394 50.4286 42.3741 51.9429 42.3741C53.4573 42.3741 54.706 41.1126 54.6794 39.6095C54.6794 38.0797 53.4573 36.845 51.9429 36.845C50.4286 36.845 49.2065 38.0797 49.2065 39.6095Z" fill="url(#paint4_linear)"/>
<defs>
<linearGradient id="paint0_linear" x1="71.9995" y1="15" x2="11.9995" y2="75" gradientUnits="userSpaceOnUse">
<stop stop-color="#93F5EE"/>
<stop offset="1" stop-color="#2D3A6A"/>
</linearGradient>
<linearGradient id="paint1_linear" x1="60.8606" y1="62" x2="60.8606" y2="70" gradientUnits="userSpaceOnUse">
<stop stop-color="#C3F7F4"/>
<stop offset="0.0001" stop-color="#C3F7F4"/>
<stop offset="1" stop-color="#9AE3E8"/>
</linearGradient>
<linearGradient id="paint2_linear" x1="59.1394" y1="33" x2="59.1394" y2="70" gradientUnits="userSpaceOnUse">
<stop stop-color="#C3F7F4"/>
<stop offset="0.0001" stop-color="#C3F7F4"/>
<stop offset="1" stop-color="#9AE3E8"/>
</linearGradient>
<linearGradient id="paint3_linear" x1="59.9094" y1="50" x2="59.9094" y2="70" gradientUnits="userSpaceOnUse">
<stop stop-color="#C3F7F4"/>
<stop offset="0.0001" stop-color="#C3F7F4"/>
<stop offset="1" stop-color="#9AE3E8"/>
</linearGradient>
<linearGradient id="paint4_linear" x1="52" y1="34" x2="52" y2="45.2821" gradientUnits="userSpaceOnUse">
<stop stop-color="#C3F7F4"/>
<stop offset="0.0001" stop-color="#C3F7F4"/>
<stop offset="1" stop-color="#9AE3E8"/>
</linearGradient>
</defs>
</svg>
