<svg width="120" height="120" viewBox="0 0 120 120" fill="none" xmlns="http://www.w3.org/2000/svg">
<rect x="6" y="77.4648" width="68.4648" height="68.4648" transform="rotate(-90 6 77.4648)" fill="#C6E7E4"/>
<rect x="85.5852" y="82.832" width="28.1679" height="28.1679" fill="#C6E7E4"/>
<path d="M63.455 63.8452H50.4549L43.7135 70.5799C43.3568 70.94 42.879 71.1322 42.3916 71.1322C42.1527 71.1322 41.9111 71.0869 41.6803 70.9914C40.975 70.7017 40.5188 70.0208 40.5188 69.256V47.0912C40.5188 41.1681 45.338 36.3496 51.2611 36.3496H65.3172C70.8267 36.3496 75.3752 40.521 75.985 45.8702" stroke="#2D3A6A" stroke-width="2"/>
<path d="M73.5 74.101C72.1645 73.3856 71.0213 72.3642 70.1516 71.1344C69.0334 69.5526 68.3701 67.6262 68.3701 65.5416V59.5345C68.3701 54.1732 72.7162 49.8271 78.0775 49.8271H92.135C92.7123 49.8271 93.2755 49.8874 93.8257 49.9842C98.3796 50.7856 101.842 54.7519 101.842 59.5352V81.7006C101.842 82.2056 101.429 82.5399 101 82.5393C100.793 82.5393 100.583 82.4628 100.413 82.2922L95.6086 77.4879L93.6146 75.4939C93.4731 75.3525 93.2843 75.2767 93.0866 75.2611" stroke="#2D3A6A" stroke-width="2"/>
<path d="M63.0742 78.3691C63.0742 75.0113 60.3523 72.2893 56.9944 72.2893C53.6365 72.2893 50.9146 75.0113 50.9146 78.3691C50.9146 81.727 53.6364 84.4489 56.9942 84.449L63.0742 78.3691ZM63.0742 78.3691C63.0742 81.7262 60.3524 84.4483 56.9944 84.449L63.0742 78.3691Z" stroke="#2D3A6A" stroke-width="2"/>
<path d="M44.3689 97.2663C44.3689 92.4884 47.8905 88.5282 52.4701 87.8161C52.9513 87.7417 53.4407 87.6909 53.9429 87.6909H60.0427C60.5449 87.6909 61.0343 87.741 61.5155 87.8161C66.0964 88.5282 69.6181 92.4884 69.6181 97.2663" stroke="#2D3A6A" stroke-width="2"/>
<path d="M89.1504 78.3691C89.1504 75.0113 86.4284 72.2893 83.0706 72.2893C79.7127 72.2893 76.9907 75.0113 76.9907 78.3691C76.9907 81.727 79.7126 84.4489 83.0704 84.449L89.1504 78.3691ZM89.1504 78.3691C89.1504 81.7262 86.4286 84.4483 83.0706 84.449L89.1504 78.3691Z" stroke="#2D3A6A" stroke-width="2"/>
<path d="M70.4453 97.2663C70.4453 92.4884 73.967 88.5282 78.5479 87.8161C79.0291 87.7417 79.5185 87.6909 80.0207 87.6909H86.1198C86.622 87.6909 87.1114 87.741 87.5926 87.8161C92.1735 88.5282 95.6952 92.4884 95.6952 97.2663" stroke="#2D3A6A" stroke-width="2"/>
</svg>
