<svg width="120" height="120" viewBox="0 0 120 120" fill="none" xmlns="http://www.w3.org/2000/svg">
<circle cx="45" cy="37" r="35" fill="#C6E7E4"/>
<circle cx="82" cy="103" r="15" fill="#C6E7E4"/>
<path d="M38.065 57.2146L58.6971 54.6814L80.6866 76.6854L78.3521 97.5017L77.9522 101.478L33.9971 57.5224L38.065 57.2146Z" stroke="#2D3A6A" stroke-width="2"/>
<path d="M108.653 26.7132C98.2783 23.9447 83.7954 29.5772 75.6553 37.7165L44.9229 68.4489L66.9166 90.4427L97.649 59.7103C105.789 51.571 111.422 37.0881 108.653 26.7132Z" stroke="#2D3A6A" stroke-width="2"/>
<path d="M93.3935 42.099L93.2664 41.9719C90.26 38.9655 85.3855 38.9647 82.3783 41.9719L82.2512 42.099C79.2448 45.1054 79.244 49.9799 82.2512 52.9871L82.3783 53.1142C85.3846 56.1206 90.2592 56.1214 93.2664 53.1142L93.3935 52.9871C96.3999 49.9807 96.4007 45.1062 93.3935 42.099Z" stroke="#2D3A6A" stroke-width="2"/>
<path d="M51.9353 80.8525L40.9951 91.7927" stroke="#2D3A6A" stroke-width="2"/>
<path d="M46.5255 75.4531L39.9653 82.0133" stroke="#2D3A6A" stroke-width="2"/>
<path d="M57.4962 86.4229L50.936 92.983" stroke="#2D3A6A" stroke-width="2"/>
</svg>
