<svg width="32" height="32" viewBox="0 0 32 32" fill="none" xmlns="http://www.w3.org/2000/svg">
<path d="M26.9377 14.5406H24.4064C24.2627 14.5406 24.1252 14.6031 24.0283 14.7125L17.1877 22.5969V5C17.1877 4.8625 17.0752 4.75 16.9377 4.75H15.0627C14.9252 4.75 14.8127 4.8625 14.8127 5V22.5969L7.97204 14.7125C7.87829 14.6031 7.74078 14.5406 7.59391 14.5406H5.06266C4.85016 14.5406 4.73454 14.7937 4.87516 14.9531L15.247 26.9062C15.3408 27.0144 15.4567 27.1012 15.5869 27.1606C15.7171 27.2201 15.8586 27.2508 16.0017 27.2508C16.1449 27.2508 16.2863 27.2201 16.4165 27.1606C16.5467 27.1012 16.6627 27.0144 16.7564 26.9062L27.1252 14.9531C27.2658 14.7906 27.1502 14.5406 26.9377 14.5406Z" fill="#2D3A6A"/>
</svg>
