<svg width="26" height="26" viewBox="0 0 26 26" fill="none" xmlns="http://www.w3.org/2000/svg">
<path d="M25.6562 11.6641H5.08628L17.398 0.976562C17.5949 0.804297 17.4753 0.484375 17.2152 0.484375H14.1039C13.9667 0.484375 13.8367 0.533594 13.7347 0.621484L0.449168 12.1492C0.327487 12.2547 0.2299 12.3851 0.163019 12.5316C0.0961372 12.6781 0.0615234 12.8372 0.0615234 12.9982C0.0615234 13.1593 0.0961372 13.3184 0.163019 13.4649C0.2299 13.6114 0.327487 13.7418 0.449168 13.8473L13.8121 25.4453C13.8648 25.491 13.9281 25.5156 13.9949 25.5156H17.2117C17.4718 25.5156 17.5914 25.1922 17.3945 25.0234L5.08628 14.3359H25.6562C25.8109 14.3359 25.9374 14.2094 25.9374 14.0547V11.9453C25.9374 11.7906 25.8109 11.6641 25.6562 11.6641Z" fill="#55B7B0"/>
</svg>
