<svg width="20" height="20" viewBox="0 0 20 20" fill="none" xmlns="http://www.w3.org/2000/svg">
<path d="M18.625 0.625H1.375C0.960156 0.625 0.625 0.960156 0.625 1.375V18.625C0.625 19.0398 0.960156 19.375 1.375 19.375H18.625C19.0398 19.375 19.375 19.0398 19.375 18.625V1.375C19.375 0.960156 19.0398 0.625 18.625 0.625ZM14.3242 7.67266L10.1523 13.4383C10.1351 13.4622 10.1124 13.4818 10.0861 13.4952C10.0598 13.5087 10.0307 13.5157 10.0012 13.5157C9.97164 13.5157 9.94254 13.5087 9.91625 13.4952C9.88997 13.4818 9.86726 13.4622 9.85 13.4383L5.67813 7.67266C5.58906 7.54844 5.67813 7.375 5.83047 7.375H6.92969C7.16875 7.375 7.39609 7.48984 7.53672 7.68438L10 11.0922L12.4656 7.68438C12.6063 7.48984 12.8312 7.375 13.0727 7.375H14.1719C14.3242 7.375 14.4133 7.54844 14.3242 7.67266Z" fill="#2D3A6A"/>
</svg>
