<svg width="28" height="28" viewBox="0 0 28 28" fill="none" xmlns="http://www.w3.org/2000/svg">
<mask id="mask0" mask-type="alpha" maskUnits="userSpaceOnUse" x="1" y="1" width="26" height="26">
<circle cx="14" cy="14" r="13" fill="white"/>
</mask>
<g mask="url(#mask0)">
<rect x="1" y="1" width="26" height="26" fill="#FBFBFB"/>
<circle cx="14" cy="14" r="12.5" stroke="#EFEFEF"/>
<path fill-rule="evenodd" clip-rule="evenodd" d="M9 16.9616C9 17.237 9.09877 17.5012 9.27459 17.6959C9.4504 17.8907 9.68886 18.0001 9.9375 18.0001H18.0625C18.3111 18.0001 18.5496 17.8907 18.7254 17.6959C18.9012 17.5012 19 17.237 19 16.9616V12.8076H18.375V16.9616C18.375 17.0534 18.3421 17.1414 18.2835 17.2064C18.2249 17.2713 18.1454 17.3078 18.0625 17.3078H9.9375C9.85462 17.3078 9.77513 17.2713 9.71653 17.2064C9.65792 17.1414 9.625 17.0534 9.625 16.9616V12.8076H9V16.9616Z" fill="#55B7B0"/>
<path fill-rule="evenodd" clip-rule="evenodd" d="M9 11.4231C9 11.1477 9.09877 10.8836 9.27459 10.6888C9.4504 10.4941 9.68886 10.3847 9.9375 10.3847H18.0625C18.3111 10.3847 18.5496 10.4941 18.7254 10.6888C18.9012 10.8836 19 11.1477 19 11.4231V13.0737L14.2413 14.4791C14.0832 14.5257 13.9168 14.5257 13.7587 14.4791L9 13.0737V11.4231ZM9.9375 11.077C9.85462 11.077 9.77513 11.1135 9.71653 11.1784C9.65792 11.2433 9.625 11.3313 9.625 11.4231V12.542L13.9194 13.8103C13.9722 13.8259 14.0278 13.8259 14.0806 13.8103L18.375 12.542V11.4231C18.375 11.3313 18.3421 11.2433 18.2835 11.1784C18.2249 11.1135 18.1454 11.077 18.0625 11.077H9.9375ZM12.125 10.0385C12.125 9.76307 12.2238 9.49892 12.3996 9.30417C12.5754 9.10941 12.8139 9 13.0625 9H14.9375C15.1861 9 15.4246 9.10941 15.6004 9.30417C15.7762 9.49892 15.875 9.76307 15.875 10.0385V10.3847H15.25V10.0385C15.25 9.94668 15.2171 9.85864 15.1585 9.79372C15.0999 9.7288 15.0204 9.69233 14.9375 9.69233H13.0625C12.9796 9.69233 12.9001 9.7288 12.8415 9.79372C12.7829 9.85864 12.75 9.94668 12.75 10.0385V10.3847H12.125V10.0385Z" fill="#55B7B0"/>
</g>
</svg>
