<svg width="136" height="30" viewBox="0 0 136 30" fill="none" xmlns="http://www.w3.org/2000/svg">
<path d="M17.8287 29.8618H12.3459V27.2977V26.351V20.71C13.2597 20.4536 14.1152 19.9605 14.7957 19.2701C15.8261 18.2248 16.39 16.8244 16.39 15.3451C16.39 13.8658 15.8067 12.4654 14.7957 11.42C14.1152 10.7297 13.2597 10.2366 12.3459 9.98019V4.35889C13.9597 4.57585 15.5151 5.14784 16.876 6.05514C17.5176 6.46934 18.1009 6.96244 18.6647 7.51471C20.7062 9.58571 21.8728 12.4062 21.8728 15.3451C21.8728 18.2839 20.7257 21.1045 18.6647 23.1755C18.412 23.4319 18.1398 23.6883 17.8482 23.925V29.8618H17.8287Z" fill="#55B7B0"/>
<path d="M9.50736 4.35897C8.06862 4.55621 6.70765 5.02959 5.46333 5.75937V0H0V15.3649C0 18.3037 1.1471 21.1243 3.20801 23.1953C3.75239 23.7475 4.35511 24.2406 4.99671 24.6548C6.35768 25.5621 7.91308 26.1341 9.5268 26.3511V20.7101C8.61301 20.4536 7.75754 19.9606 7.07705 19.2702C6.0466 18.2249 5.48277 16.8245 5.48277 15.3452C5.48277 13.8659 6.06605 12.4655 7.07705 11.4201C7.75754 10.7298 8.61301 10.2367 9.5268 9.98028V4.35897H9.50736Z" fill="#3C3C3B"/>
<path d="M27.5305 24.714V7.37671H31.8467C33.0716 7.37671 33.9854 7.43588 34.5687 7.57395C35.152 7.71201 35.6575 7.92898 36.0658 8.24456C36.5907 8.63904 36.999 9.15186 37.2906 9.80274C37.5823 10.4339 37.7378 11.144 37.7378 11.9132C37.7378 12.8402 37.5239 13.6094 37.1156 14.2209C36.6879 14.8323 36.0852 15.2663 35.2881 15.5227C36.2796 15.6805 37.0768 16.1341 37.6406 16.9033C38.2044 17.6726 38.4961 18.6193 38.4961 19.783C38.4961 20.4931 38.3794 21.144 38.1267 21.7751C37.8933 22.4063 37.5434 22.9388 37.0962 23.3925C36.6296 23.8659 36.0463 24.2209 35.3658 24.4181C34.6659 24.6154 33.5188 24.714 31.8662 24.714H27.5305ZM30.2525 14.6943H31.3218C32.6439 14.6943 33.5771 14.5167 34.1215 14.142C34.6659 13.7672 34.9381 13.1558 34.9381 12.2879C34.9381 11.3412 34.6853 10.6706 34.1798 10.2958C33.6743 9.92109 32.7217 9.72385 31.3024 9.72385H30.233V14.6943H30.2525ZM30.2525 22.3668H31.2051C32.1773 22.3668 32.8966 22.3274 33.3827 22.2485C33.8688 22.1696 34.2382 22.0315 34.5298 21.8343C34.8798 21.5976 35.1325 21.3018 35.3269 20.9073C35.5214 20.5128 35.5991 20.0986 35.5991 19.6252C35.5991 19.073 35.4825 18.5996 35.2686 18.1854C35.0353 17.7712 34.7242 17.4556 34.2965 17.2189C34.0243 17.0808 33.7327 16.9822 33.3827 16.9231C33.0522 16.8639 32.5856 16.8244 32.0412 16.8244H31.2051H30.2525V22.3668Z" fill="#3C3C3B"/>
<path d="M43.5512 13.4912V19.8226C43.5512 20.9074 43.7651 21.6963 44.2122 22.1697C44.6594 22.6431 45.3788 22.8798 46.3704 22.8798C47.3619 22.8798 48.0813 22.6431 48.5285 22.1697C48.9757 21.6963 49.1895 20.9074 49.1895 19.8226V13.4912H51.717V19.0533C51.717 21.2032 51.2893 22.7614 50.4533 23.7279C49.5978 24.6944 48.2563 25.1875 46.3898 25.1875C44.5039 25.1875 43.1235 24.7141 42.2874 23.7476C41.432 22.7812 41.0237 21.223 41.0237 19.0533V13.4912H43.5512Z" fill="#3C3C3B"/>
<path d="M63.0326 6.37085H65.5601V24.7338H63.0326V23.2742C62.5854 23.9251 62.0605 24.3985 61.4577 24.714C60.855 25.0296 60.1551 25.1874 59.3774 25.1874C57.822 25.1874 56.5777 24.6352 55.6833 23.5503C54.789 22.4655 54.3418 20.9862 54.3418 19.0927C54.3418 17.2979 54.8084 15.858 55.7222 14.7535C56.636 13.649 57.8414 13.0967 59.3191 13.0967C60.2134 13.0967 60.9911 13.2939 61.6327 13.6687C62.2743 14.0434 62.7409 14.5957 63.0326 15.3255V6.37085ZM63.0909 19.073C63.0909 17.9093 62.8187 17.002 62.2938 16.3708C61.7688 15.72 61.0106 15.4044 60.0579 15.4044C59.1052 15.4044 58.3469 15.7397 57.8026 16.4103C57.2582 17.0809 56.986 18.0079 56.986 19.1914C56.986 20.3748 57.2582 21.3018 57.7831 21.9527C58.3081 22.6036 59.0663 22.9192 60.019 22.9192C60.9328 22.9192 61.6716 22.5641 62.2549 21.8738C62.8187 21.144 63.0909 20.217 63.0909 19.073Z" fill="#3C3C3B"/>
<path d="M79.4806 24.0238C79.4806 26.2132 79.0529 27.7714 78.178 28.659C77.3225 29.5465 75.8644 30.0002 73.8035 30.0002C72.2869 30.0002 71.0621 29.6649 70.1483 29.014C69.2345 28.3631 68.7679 27.4952 68.7679 26.4104L71.4898 26.3907C71.5287 26.8641 71.7426 27.2388 72.1509 27.4952C72.5591 27.7517 73.123 27.87 73.8618 27.87C74.9506 27.87 75.7283 27.6333 76.1949 27.1402C76.6615 26.6668 76.9142 25.8582 76.9142 24.7339L76.9337 23.2349C76.4865 23.8858 75.9616 24.3591 75.3589 24.6747C74.7561 24.9903 74.0562 25.1481 73.2785 25.1481C71.7231 25.1481 70.4788 24.5958 69.5844 23.511C68.6901 22.4262 68.2429 20.9469 68.2429 19.0534C68.2429 17.2586 68.7095 15.8187 69.6233 14.7142C70.5371 13.6096 71.7426 13.0574 73.2202 13.0574C74.1145 13.0574 74.8922 13.2546 75.5338 13.6294C76.1754 14.0041 76.6421 14.5564 76.9337 15.2862V13.4519H79.4612V24.0238H79.4806ZM77.0115 19.0732C77.0115 17.9094 76.7393 17.0021 76.2143 16.371C75.6894 15.7201 74.9311 15.4045 73.9784 15.4045C73.0258 15.4045 72.2675 15.7398 71.7231 16.4104C71.1787 17.081 70.9065 18.0081 70.9065 19.1915C70.9065 20.3749 71.1787 21.302 71.7037 21.9528C72.2286 22.6037 72.9869 22.9193 73.9396 22.9193C74.8533 22.9193 75.5922 22.5643 76.156 21.8739C76.7198 21.1442 77.0115 20.2171 77.0115 19.0732Z" fill="#3C3C3B"/>
<path d="M93.635 19.4871H84.7887C84.847 20.5324 85.1581 21.3608 85.7025 21.9526C86.2469 22.5443 86.9857 22.8401 87.8995 22.8401C88.7161 22.8401 89.3966 22.6626 89.9409 22.3273C90.4853 21.9723 90.952 21.42 91.3602 20.6508L93.4989 21.8539C92.8768 22.9782 92.0991 23.8263 91.1853 24.3786C90.2715 24.9309 89.1827 25.207 87.9578 25.207C86.1886 25.207 84.7693 24.6547 83.7194 23.5699C82.6695 22.4654 82.1445 21.0058 82.1445 19.1715C82.1445 17.4161 82.6889 15.9565 83.7777 14.8322C84.8665 13.708 86.2663 13.136 87.9578 13.136C89.7465 13.136 91.1269 13.6488 92.1185 14.6942C93.1101 15.7198 93.6156 17.1794 93.6156 19.0334V19.4871H93.635ZM91.0103 17.7514C90.9131 16.9427 90.602 16.3313 90.0965 15.9171C89.591 15.5029 88.8911 15.2859 88.0161 15.2859C87.1801 15.2859 86.5191 15.4831 86.0136 15.8973C85.5081 16.3115 85.1581 16.923 84.9442 17.7514H91.0103Z" fill="#3C3C3B"/>
<path d="M96.8622 24.714V15.7396H94.918V13.4911H96.8622V9.25049H99.3897V13.5108H101.334V15.7594H99.3897V24.7337H96.8622V24.714Z" fill="#3C3C3B"/>
<path d="M106.331 16.9428V24.714H103.726V7.37671H107.925C109.169 7.37671 110.083 7.4556 110.667 7.59367C111.25 7.73174 111.775 7.96842 112.202 8.28401C112.747 8.67848 113.155 9.23075 113.466 9.92109C113.777 10.6114 113.913 11.3609 113.913 12.1696C113.913 12.9783 113.758 13.7475 113.466 14.4378C113.155 15.1282 112.747 15.6805 112.202 16.0749C111.775 16.3905 111.25 16.6075 110.667 16.7455C110.083 16.8836 109.169 16.9428 107.925 16.9428H107.381H106.331ZM106.506 14.6351H107.225C108.761 14.6351 109.792 14.4576 110.317 14.1223C110.822 13.787 111.094 13.1755 111.094 12.3274C111.094 11.4004 110.822 10.7495 110.278 10.3747C109.733 9.99998 108.722 9.80274 107.245 9.80274H106.525V14.6351H106.506Z" fill="#55B7B0"/>
<path d="M118.366 15.2861C118.638 14.5366 119.007 14.004 119.455 13.649C119.902 13.294 120.466 13.1165 121.127 13.1165C121.477 13.1165 121.846 13.1559 122.176 13.2545C122.526 13.3334 122.857 13.4715 123.207 13.6293L122.293 15.7989C122.079 15.6411 121.846 15.5228 121.593 15.4439C121.34 15.365 121.049 15.3255 120.738 15.3255C119.902 15.3255 119.299 15.6608 118.93 16.3512C118.56 17.0415 118.385 18.1855 118.385 19.7831V24.7141H115.858V13.4715H118.385V15.2861H118.366Z" fill="#55B7B0"/>
<path d="M123.81 19.1125C123.81 18.2841 123.965 17.5148 124.276 16.785C124.587 16.0553 125.034 15.4044 125.598 14.8324C126.162 14.2801 126.823 13.8462 127.562 13.5503C128.301 13.2545 129.078 13.0967 129.876 13.0967C130.712 13.0967 131.489 13.2545 132.228 13.5503C132.967 13.8462 133.628 14.2998 134.211 14.8718C134.795 15.4438 135.242 16.0947 135.533 16.8245C135.844 17.5543 135.981 18.3038 135.981 19.1125C135.981 19.9409 135.825 20.7101 135.533 21.4399C135.242 22.1697 134.795 22.8008 134.211 23.3728C133.609 23.9645 132.928 24.4182 132.189 24.714C131.45 25.0099 130.673 25.1677 129.856 25.1677C129.059 25.1677 128.281 25.0099 127.543 24.714C126.804 24.4182 126.143 23.9645 125.579 23.3925C124.996 22.8008 124.548 22.1499 124.257 21.4202C123.965 20.7101 123.81 19.9409 123.81 19.1125ZM133.317 19.1322C133.317 18.0868 132.986 17.1992 132.325 16.4892C131.664 15.7791 130.848 15.4044 129.895 15.4044C128.942 15.4044 128.145 15.7594 127.465 16.4892C126.804 17.219 126.473 18.0868 126.473 19.1322C126.473 20.1775 126.804 21.0651 127.465 21.7752C128.126 22.505 128.942 22.86 129.895 22.86C130.848 22.86 131.645 22.505 132.325 21.7752C132.986 21.0651 133.317 20.1775 133.317 19.1322Z" fill="#55B7B0"/>
</svg>
