<svg width="24" height="24" viewBox="0 0 24 24" fill="none" xmlns="http://www.w3.org/2000/svg">
<path d="M9.60428 7.58532H11.185V15.2732C11.185 15.3732 11.262 15.455 11.3561 15.455H12.6396C12.7337 15.455 12.8107 15.3732 12.8107 15.2732V7.58532H14.3957C14.539 7.58532 14.6182 7.41033 14.5305 7.29216L12.1348 4.06975C12.1188 4.04803 12.0983 4.03045 12.075 4.01837C12.0516 4.00628 12.026 4 12 4C11.974 4 11.9484 4.00628 11.925 4.01837C11.9017 4.03045 11.8812 4.04803 11.8652 4.06975L9.46952 7.28989C9.38182 7.41033 9.46096 7.58532 9.60428 7.58532ZM19.8289 14.5914H18.5455C18.4513 14.5914 18.3743 14.6733 18.3743 14.7732V18.2729H5.62567V14.7732C5.62567 14.6733 5.54866 14.5914 5.45455 14.5914H4.17112C4.07701 14.5914 4 14.6733 4 14.7732V19.2728C4 19.675 4.30588 20 4.68449 20H19.3155C19.6941 20 20 19.675 20 19.2728V14.7732C20 14.6733 19.923 14.5914 19.8289 14.5914Z" fill="#55B7B0"/>
</svg>
