<svg width="32" height="32" viewBox="0 0 32 32" fill="none" xmlns="http://www.w3.org/2000/svg">
<mask id="mask0" mask-type="alpha" maskUnits="userSpaceOnUse" x="0" y="0" width="32" height="32">
<circle cx="16" cy="16" r="16" fill="white"/>
</mask>
<g mask="url(#mask0)">
<rect x="0.5" y="0.5" width="31" height="31" fill="#FBFBFB" stroke="#EFEFEF"/>
<circle cx="16" cy="16" r="15.5" stroke="#EFEFEF"/>
<path d="M21.5292 20.609C21.2282 19.8793 20.7914 19.2164 20.2431 18.6574C19.6964 18.0968 19.0489 17.6498 18.3362 17.3411C18.3298 17.3378 18.3234 17.3362 18.317 17.3329C19.3111 16.598 19.9574 15.4009 19.9574 14.0503C19.9574 11.8128 18.1862 10 16 10C13.8138 10 12.0426 11.8128 12.0426 14.0503C12.0426 15.4009 12.6889 16.598 13.683 17.3345C13.6766 17.3378 13.6702 17.3394 13.6638 17.3427C12.949 17.6514 12.3075 18.094 11.7569 18.659C11.2091 19.2185 10.7724 19.8813 10.4708 20.6107C10.1745 21.3248 10.0147 22.0904 10 22.8661C9.99961 22.8835 10.0026 22.9009 10.0088 22.9171C10.0151 22.9333 10.0244 22.9481 10.0363 22.9606C10.0482 22.9731 10.0624 22.983 10.0781 22.9898C10.0938 22.9965 10.1107 23 10.1277 23H11.0851C11.1554 23 11.2112 22.9428 11.2128 22.8726C11.2447 21.6118 11.7394 20.431 12.6139 19.5361C13.5186 18.6101 14.7202 18.1005 16 18.1005C17.2798 18.1005 18.4814 18.6101 19.3861 19.5361C20.2606 20.431 20.7553 21.6118 20.7872 22.8726C20.7888 22.9445 20.8446 23 20.9149 23H21.8723C21.8893 23 21.9062 22.9965 21.9219 22.9898C21.9376 22.983 21.9518 22.9731 21.9637 22.9606C21.9756 22.9481 21.9849 22.9333 21.9912 22.9171C21.9974 22.9009 22.0004 22.8835 22 22.8661C21.984 22.0854 21.826 21.326 21.5292 20.609ZM16 16.8593C15.2676 16.8593 14.5782 16.567 14.0596 16.0362C13.541 15.5054 13.2553 14.7999 13.2553 14.0503C13.2553 13.3006 13.541 12.5951 14.0596 12.0643C14.5782 11.5335 15.2676 11.2412 16 11.2412C16.7324 11.2412 17.4218 11.5335 17.9404 12.0643C18.459 12.5951 18.7447 13.3006 18.7447 14.0503C18.7447 14.7999 18.459 15.5054 17.9404 16.0362C17.4218 16.567 16.7324 16.8593 16 16.8593Z" fill="#55B7B0"/>
</g>
</svg>
