<svg width="42" height="42" viewBox="0 0 42 42" fill="none" xmlns="http://www.w3.org/2000/svg">
<mask id="mask0" mask-type="alpha" maskUnits="userSpaceOnUse" x="0" y="0" width="42" height="42">
<circle cx="21" cy="21" r="21" fill="white"/>
</mask>
<g mask="url(#mask0)">
<rect x="0.5" y="0.5" width="41" height="41" fill="#F8F8F8" stroke="#EFEFEF"/>
<circle cx="21" cy="21" r="20.5" fill="#F8F8F8" stroke="#EFEFEF"/>
<path d="M27.7139 25.8771C27.3484 25.011 26.8179 24.2243 26.1521 23.5609C25.4883 22.8955 24.702 22.365 23.8366 21.9986C23.8288 21.9947 23.8211 21.9928 23.8133 21.9889C25.0205 21.1167 25.8053 19.696 25.8053 18.093C25.8053 15.4376 23.6544 13.2861 20.9998 13.2861C18.3452 13.2861 16.1944 15.4376 16.1944 18.093C16.1944 19.696 16.9791 21.1167 18.1863 21.9909C18.1786 21.9947 18.1708 21.9967 18.1631 22.0006C17.295 22.3669 16.516 22.8922 15.8475 23.5628C15.1824 24.2268 14.652 25.0133 14.2858 25.879C13.926 26.7265 13.732 27.6352 13.7142 28.5558C13.7136 28.5765 13.7173 28.597 13.7248 28.6163C13.7324 28.6356 13.7437 28.6531 13.7582 28.6679C13.7726 28.6827 13.7899 28.6945 13.8089 28.7025C13.828 28.7106 13.8485 28.7147 13.8692 28.7147H15.0318C15.117 28.7147 15.1849 28.6469 15.1868 28.5635C15.2255 27.0672 15.8262 25.6658 16.8881 24.6036C17.9867 23.5047 19.4458 22.8999 20.9998 22.8999C22.5538 22.8999 24.0129 23.5047 25.1116 24.6036C26.1734 25.6658 26.7741 27.0672 26.8129 28.5635C26.8148 28.6488 26.8826 28.7147 26.9679 28.7147H28.1305C28.1512 28.7147 28.1716 28.7106 28.1907 28.7025C28.2098 28.6945 28.227 28.6827 28.2415 28.6679C28.2559 28.6531 28.2673 28.6356 28.2748 28.6163C28.2824 28.597 28.286 28.5765 28.2855 28.5558C28.2661 27.6293 28.0743 26.728 27.7139 25.8771ZM20.9998 21.4268C20.1104 21.4268 19.2734 21.0799 18.6436 20.45C18.0139 19.82 17.667 18.9827 17.667 18.093C17.667 17.2034 18.0139 16.366 18.6436 15.7361C19.2734 15.1062 20.1104 14.7592 20.9998 14.7592C21.8892 14.7592 22.7263 15.1062 23.356 15.7361C23.9858 16.366 24.3326 17.2034 24.3326 18.093C24.3326 18.9827 23.9858 19.82 23.356 20.45C22.7263 21.0799 21.8892 21.4268 20.9998 21.4268Z" fill="#55B7B0"/>
</g>
</svg>
