<svg width="50" height="50" viewBox="0 0 50 50" fill="none" xmlns="http://www.w3.org/2000/svg">
<path fill-rule="evenodd" clip-rule="evenodd" d="M13.2902 12.6222L10.4617 13.6013V19.7818L13.2902 12.6222ZM10.4617 13.6013L8.5 14.3838L10.4638 19.7818V13.6013H10.4617ZM26.4525 21.3187L23.7544 26.661L29.3838 29.5733L26.4525 21.3187ZM40.0145 21.2688L41.5 12.6126L38.2325 16.0822L40.0145 21.2688ZM41.5 12.6126L38.6714 13.6358L38.2325 16.0796L41.5 12.6126ZM39.3524 25.1172L40.0124 21.2699L37.396 20.7333L39.3524 25.1172ZM40.0124 21.2699L38.2314 16.0822L37.3981 20.7344L40.0124 21.2699ZM39.3524 25.1172L37.3981 20.7344L36.3724 26.4512L39.3524 25.1172ZM30.6048 33.0062L32.2244 37.5144L35.2672 32.6269L30.6048 33.0062ZM32.2244 37.5144L36.3944 36.0036L35.2667 32.6237L32.2244 37.5144ZM36.3944 36.0036L37.5651 35.5993L35.2672 32.6243L36.3944 36.0036ZM29.3853 29.5754L30.6048 33.0073L35.2667 32.6253L29.3853 29.5754ZM36.374 26.4517L29.3853 29.5754L35.2667 32.6237L36.374 26.4517ZM37.5651 35.6003L39.3524 25.1167L35.2667 32.6237L37.5651 35.6003ZM39.3524 25.1167L36.3703 26.4501L35.2667 32.6237L39.3524 25.1167ZM26.4525 21.3187L29.3859 29.5733L32.4905 24.4404L26.4525 21.3187ZM25.3677 18.2641L26.4525 21.3187L30.7823 19.4121L25.3677 18.2641ZM26.4525 21.3187L32.4905 24.4409L30.7844 19.4121L26.4525 21.3187ZM25.3677 18.2641L30.7823 19.4121L28.4362 12.5L25.3677 18.2641ZM25.3677 18.2641L28.4362 12.5L23.9031 14.1166L25.3677 18.2641ZM23.7544 26.6615L26.4525 21.3187L23.9052 19.9731L23.7544 26.6615ZM26.4525 21.3187L25.3677 18.2641L23.9052 19.9736L26.4525 21.3187ZM25.3677 18.2641L23.901 14.1161V19.9736L25.3677 18.2641ZM23.7544 26.6615L23.9052 19.9736L20.5754 25.0168L23.7544 26.6615ZM13.3782 27.7633L17.0905 38L20.567 31.4869L13.3782 27.7633ZM17.0905 38L20.567 36.7484V31.489L17.0905 38ZM20.5738 25.0168L13.3767 27.7633L20.567 31.4869L20.5738 25.0168ZM23.7528 26.6637L20.5738 25.0168L20.5686 31.4869L23.7528 26.6637ZM13.2902 12.6222L10.4617 19.7818L17.114 23.2265L13.2902 12.6222ZM10.4617 19.7818L13.3767 27.7639L17.1146 23.227L10.4617 19.7818ZM13.3767 27.7639L20.5738 25.0173L17.1167 23.227L13.3767 27.7639Z" fill="#2E3139"/>
</svg>
